<svg width="1548" height="768" viewBox="0 0 1548 768" fill="none" xmlns="http://www.w3.org/2000/svg">
  <defs>
    <linearGradient id="footer-bg" x1="0" y1="0" x2="0" y2="1">
      <stop offset="0" stop-color="#110a2d" />
      <stop offset="1" stop-color="#05010d" />
    </linearGradient>
    <radialGradient id="glow-orange" cx="0" cy="0" r="1" gradientUnits="userSpaceOnUse" gradientTransform="translate(380 220) rotate(45) scale(420)">
      <stop stop-color="#ff6b2c" stop-opacity="0.7" />
      <stop offset="1" stop-color="#ff6b2c" stop-opacity="0" />
    </radialGradient>
    <radialGradient id="glow-purple" cx="0" cy="0" r="1" gradientUnits="userSpaceOnUse" gradientTransform="translate(1120 520) rotate(75) scale(420)">
      <stop stop-color="#7c3aed" stop-opacity="0.6" />
      <stop offset="1" stop-color="#7c3aed" stop-opacity="0" />
    </radialGradient>
  </defs>

  <rect width="1548" height="768" fill="url(#footer-bg)" />
  <circle cx="380" cy="220" r="380" fill="url(#glow-orange)" />
  <circle cx="1120" cy="520" r="380" fill="url(#glow-purple)" />

  <g opacity="0.4" filter="url(#shadow-orange)">
    <rect x="120" y="140" width="520" height="180" rx="28" fill="rgba(255,255,255,0.03)" stroke="rgba(255,255,255,0.08)" />
  </g>
  <g opacity="0.35">
    <rect x="880" y="420" width="520" height="220" rx="32" fill="rgba(255,255,255,0.04)" stroke="rgba(255,255,255,0.06)" />
  </g>

  <g fill="#ffffff" opacity="0.4">
    <circle cx="200" cy="620" r="1.8" />
    <circle cx="320" cy="540" r="1.2" />
    <circle cx="1460" cy="180" r="1.4" />
    <circle cx="1360" cy="340" r="2" />
    <circle cx="880" cy="140" r="1.6" />
    <circle cx="680" cy="660" r="1.5" />
    <circle cx="520" cy="420" r="1.3" />
  </g>

  <text x="160" y="220" fill="#ffffff" fill-opacity="0.85" font-family="'Inter', 'Helvetica Neue', Arial, sans-serif" font-size="28" font-weight="600">
    FlowForge Platform Overview
  </text>
  <text x="160" y="260" fill="#ffffff" fill-opacity="0.55" font-family="'Inter', 'Helvetica Neue', Arial, sans-serif" font-size="16" letter-spacing="4">
    SNAPSHOT · 2025
  </text>
  <rect x="160" y="300" width="240" height="6" rx="3" fill="rgba(255,107,44,0.9)" />

  <g transform="translate(920,460)">
    <rect width="420" height="80" rx="20" fill="rgba(15,9,36,0.75)" stroke="rgba(255,255,255,0.06)" />
    <text x="40" y="50" fill="#ffffff" fill-opacity="0.78" font-family="'Inter', 'Helvetica Neue', Arial, sans-serif" font-size="22">
      "Best-in-class control plane summarizing our agents"
    </text>
  </g>

  <g transform="translate(920,570)" fill="#ffffff" fill-opacity="0.55" font-family="'Inter', 'Helvetica Neue', Arial, sans-serif" font-size="16">
    <text x="0" y="0">Observability</text>
    <text x="160" y="0">Scale</text>
    <text x="260" y="0">Security</text>
  </g>
</svg>
